# xmcd CD database file
#
# Track frame offsets:
#	150
#	22822
#	43317
#	59080
#	79237
#	97677
#	113440
#	125907
#	139432
#	155642
#	171000
#	191460
#	201957
#	220015
#	239955
#
# Disc length: 3402 seconds
#
# Revision: 0
# Processed by: cddbd v1.5.2PL0 Copyright (c) Steve Scherf et al.
# Submitted via: CDex 1.77
#
DISCID=dc0d480f
DTITLE=Various Artist - Bachatazo Estrella 2001
DYEAR=2001
DGENRE=Merengue
TTITLE0=Ferreira, Zacarias - Siento que te quiero
TTITLE1=Reyes, Frank - Extrano mi pueblo
TTITLE2=Martinez, Elvis - Directo al corazon
TTITLE3=Rodriguez, Kiko - Vagabunde borracho y loco
TTITLE4=Vargas, Luis - Sin Hueso
TTITLE5=Aventura - Cuando Volveras
TTITLE6=Rios, Anthony - No vuelvas
TTITLE7=Rosario, Henry - Arrepentida
TTITLE8=Nunez, Angelo - Madre Vanidosa
TTITLE9=El Calvo, Jose - El Moton
TTITLE10=Montero, Daniel - Ay! no te vayas
TTITLE11=Rios, Anthony - Perdoname si puedes
TTITLE12=Sosa, Raffi - De amor
TTITLE13=Guerrero, Porfi - Las Mujeres
TTITLE14=Bachata Mix - Me bebi tu recuerdo
EXTD=YEAR: 2001
EXTT0=
EXTT1=
EXTT2=
EXTT3=
EXTT4=
EXTT5=
EXTT6=
EXTT7=
EXTT8=
EXTT9=
EXTT10=
EXTT11=
EXTT12=
EXTT13=
EXTT14=
PLAYORDER=
